# xmcd
#
# Track frame offsets:
#	150
#	23942
#	37650
#	55733
#	80900
#	96229
#	120160
#	135689
#	166568
#	185469
#	197172
#	211362
#	229371
#	263579
#	275788
#	288961
#	303209
#	316346
#
# Disc length: 4440 seconds
#
# Revision: 0
# Processed by: cddbd v1.5.2PL0 Copyright (c) Steve Scherf et al.
# Submitted via: dBpowerAMP V4.0
#
DISCID=f5115612
DTITLE=Elvin Bishop - Tulsa Shuffle
DYEAR=1994
DGENRE=
TTITLE0=Tulsa Shuffle
TTITLE1=How Much More
TTITLE2=The Things That I Used To Do
TTITLE3=Sweet Potato
TTITLE4=Honey Bee
TTITLE5=Prisoner Of Love
TTITLE6=Party Till The Cows Come Home
TTITLE7=Hogbottom
TTITLE8=Be With Me
TTITLE9=So Fine
TTITLE10=Don't Fight It
TTITLE11=As The Years Go Passing By
TTITLE12=So Good
TTITLE13=Rock My Soul
TTITLE14=Rockbottom
TTITLE15=Stomp
TTITLE16=Stealin' Watermelons
TTITLE17=Last Mile
EXTD=
EXTT0=
EXTT1=
EXTT2=
EXTT3=
EXTT4=
EXTT5=
EXTT6=
EXTT7=
EXTT8=
EXTT9=
EXTT10=
EXTT11=
EXTT12=
EXTT13=
EXTT14=
EXTT15=
EXTT16=
EXTT17=
PLAYORDER=
